<svg width="27" height="27" viewBox="0 0 27 27" fill="none" xmlns="http://www.w3.org/2000/svg">
<path fill-rule="evenodd" clip-rule="evenodd" d="M22.944 12.8993C21.1378 9.37527 17.5622 6.99097 13.468 6.99097C9.37385 6.99097 5.79723 9.37694 3.9921 12.8996C3.83759 13.2052 3.83759 13.5661 3.9921 13.8718C5.79823 17.3958 9.37385 19.7801 13.468 19.7801C17.5622 19.7801 21.1388 17.3941 22.944 13.8714C23.0985 13.5658 23.0985 13.2049 22.944 12.8993ZM13.468 18.1814C10.8193 18.1814 8.67212 16.0342 8.67212 13.3855C8.67212 10.7368 10.8193 8.5896 13.468 8.5896C16.1167 8.5896 18.264 10.7368 18.264 13.3855C18.2646 14.6577 17.7595 15.8779 16.8599 16.7774C15.9604 17.677 14.7402 18.1821 13.468 18.1814ZM12.6251 10.3145C12.8991 10.2347 13.1827 10.1922 13.468 10.1882C14.8363 10.185 16.0542 11.0547 16.4952 12.3499C16.9363 13.6451 16.5022 15.0774 15.4163 15.9098C14.3305 16.7423 12.8347 16.7895 11.6984 16.0273C10.5622 15.265 10.0386 13.863 10.397 12.5426C11.0313 13.0093 11.9115 12.9428 12.4684 12.3859C13.0253 11.829 13.0919 10.9488 12.6251 10.3145Z" fill="#1A203D"/>
</svg>
